<svg width="28" height="22" viewBox="0 0 28 22" fill="none" xmlns="http://www.w3.org/2000/svg">
<path fill-rule="evenodd" clip-rule="evenodd" d="M13.9999 6.41678C9.74389 6.41678 6.11483 8.39369 4.62076 11.1781C4.591 11.2335 4.54763 11.2838 4.49312 11.3261C4.43862 11.3684 4.37405 11.4018 4.30309 11.4245C4.23214 11.4472 4.1562 11.4587 4.0796 11.4583C4.003 11.4579 3.92725 11.4457 3.85667 11.4223C3.78609 11.3989 3.72206 11.3648 3.66824 11.322C3.61442 11.2792 3.57186 11.2284 3.543 11.1727C3.51413 11.117 3.49953 11.0573 3.50001 10.9971C3.5005 10.9369 3.51606 10.8774 3.54582 10.8219C5.22451 7.69381 9.28014 5.5 13.9999 5.5C18.7196 5.5 22.7753 7.69381 24.454 10.8219C24.5141 10.9339 24.5151 11.0601 24.4568 11.1727C24.3985 11.2853 24.2857 11.3751 24.1431 11.4223C24.0006 11.4695 23.84 11.4703 23.6967 11.4245C23.5534 11.3787 23.4391 11.2901 23.379 11.1781C21.885 8.39369 18.2559 6.41678 13.9999 6.41678Z" fill="#A6A6A6"/>
<path fill-rule="evenodd" clip-rule="evenodd" d="M13.9999 15.5832C9.74389 15.5832 6.11483 13.6063 4.62076 10.8219C4.591 10.7665 4.54763 10.7162 4.49312 10.6739C4.43862 10.6316 4.37405 10.5982 4.30309 10.5755C4.23214 10.5528 4.1562 10.5413 4.0796 10.5417C4.003 10.5421 3.92725 10.5543 3.85667 10.5777C3.78609 10.6011 3.72206 10.6352 3.66824 10.678C3.61442 10.7208 3.57186 10.7715 3.543 10.8273C3.51413 10.883 3.49953 10.9427 3.50001 11.0029C3.5005 11.0631 3.51606 11.1226 3.54582 11.1781C5.22451 14.3062 9.28014 16.5 13.9999 16.5C18.7196 16.5 22.7753 14.3062 24.454 11.1781C24.5141 11.0661 24.5151 10.9399 24.4568 10.8273C24.3985 10.7147 24.2857 10.6249 24.1431 10.5777C24.0006 10.5305 23.84 10.5297 23.6967 10.5755C23.5534 10.6213 23.4391 10.7099 23.379 10.8219C21.885 13.6063 18.2559 15.5832 13.9999 15.5832Z" fill="#A6A6A6"/>
<path fill-rule="evenodd" clip-rule="evenodd" d="M13.9999 8.70859C13.6139 8.70488 13.2308 8.76141 12.8728 8.8749C12.5148 8.9884 12.189 9.15661 11.9144 9.36977C11.6397 9.58294 11.4217 9.83682 11.2729 10.1167C11.124 10.3966 11.0474 10.6969 11.0474 11.0002C11.0474 11.3035 11.124 11.6038 11.2729 11.8837C11.4217 12.1636 11.6397 12.4175 11.9144 12.6306C12.189 12.8438 12.5148 13.012 12.8728 13.1255C13.2308 13.239 13.6139 13.2955 13.9999 13.2918C14.7673 13.2844 15.5 13.0397 16.0393 12.6108C16.5786 12.1818 16.881 11.6032 16.881 11.0002C16.881 10.3972 16.5786 9.81858 16.0393 9.38962C15.5 8.96066 14.7673 8.71597 13.9999 8.70859ZM9.91675 11C9.91675 10.5787 10.0224 10.1615 10.2276 9.7723C10.4328 9.38306 10.7335 9.02939 11.1127 8.73147C11.4918 8.43356 11.942 8.19725 12.4374 8.03602C12.9328 7.87479 13.4637 7.79181 13.9999 7.79181C14.5361 7.79181 15.0671 7.87479 15.5625 8.03602C16.0579 8.19725 16.508 8.43356 16.8872 8.73147C17.2663 9.02939 17.5671 9.38306 17.7723 9.7723C17.9775 10.1615 18.0831 10.5787 18.0831 11C18.0831 11.8509 17.6529 12.6669 16.8872 13.2686C16.1214 13.8702 15.0829 14.2082 13.9999 14.2082C12.917 14.2082 11.8784 13.8702 11.1127 13.2686C10.3469 12.6669 9.91675 11.8509 9.91675 11Z" fill="#A6A6A6"/>
<path fill-rule="evenodd" clip-rule="evenodd" d="M24.3295 2.88408C24.557 3.06317 24.557 3.35329 24.3295 3.53239L4.4954 19.116C4.44122 19.1585 4.3769 19.1922 4.30613 19.2153C4.23535 19.2383 4.1595 19.2501 4.0829 19.2501C4.0063 19.2501 3.93045 19.2382 3.85969 19.2152C3.78893 19.1921 3.72464 19.1583 3.67049 19.1158C3.61634 19.0732 3.57339 19.0227 3.5441 18.9671C3.5148 18.9115 3.49974 18.8519 3.49976 18.7917C3.49978 18.7315 3.51488 18.6719 3.54422 18.6163C3.57355 18.5607 3.61653 18.5102 3.67071 18.4676L23.5043 2.88408C23.7318 2.70498 24.1015 2.70498 24.3295 2.88408Z" fill="#A6A6A6"/>
</svg>
