<svg width="26" height="12" viewBox="0 0 26 12" fill="none" xmlns="http://www.w3.org/2000/svg">
<g id="Group 2">
<path id="Ellipse 1" d="M25.2799 6C25.1203 6.1484 24.91 6.33815 24.6535 6.55748C24.0093 7.10828 23.0762 7.8435 21.9236 8.57841C19.6103 10.0533 16.4555 11.5 13 11.5C9.54451 11.5 6.38966 10.0533 4.07642 8.57841C2.92383 7.8435 1.99069 7.10828 1.34655 6.55748C1.09004 6.33815 0.879749 6.1484 0.720081 6C0.879749 5.8516 1.09004 5.66185 1.34655 5.44252C1.99069 4.89172 2.92383 4.1565 4.07642 3.42159C6.38966 1.94665 9.54451 0.5 13 0.5C16.4555 0.5 19.6103 1.94665 21.9236 3.42159C23.0762 4.1565 24.0093 4.89172 24.6535 5.44252C24.91 5.66185 25.1203 5.8516 25.2799 6Z" stroke="#A6A6A6"/>
<path id="Ellipse 2" d="M18.409 5.80001C18.409 7.95507 16.111 9.90001 12.9999 9.90001C9.88878 9.90001 7.59082 7.95507 7.59082 5.80001C7.59082 3.64496 9.88878 1.70001 12.9999 1.70001C16.111 1.70001 18.409 3.64496 18.409 5.80001Z" stroke="#A6A6A6"/>
<path id="Ellipse 3" d="M15.5726 5.80001C15.5726 6.62814 14.6522 7.50001 13.2363 7.50001C11.8203 7.50001 10.8999 6.62814 10.8999 5.80001C10.8999 4.97187 11.8203 4.10001 13.2363 4.10001C14.6522 4.10001 15.5726 4.97187 15.5726 5.80001Z" fill="#A6A6A6" stroke="#A6A6A6"/>
</g>
</svg>
