<svg width="26" height="12" viewBox="0 0 26 12" fill="none" xmlns="http://www.w3.org/2000/svg">
<path id="Ellipse 1" d="M25.2799 6C25.1203 6.1484 24.91 6.33815 24.6535 6.55748C24.0093 7.10828 23.0762 7.8435 21.9236 8.57841C19.6103 10.0533 16.4555 11.5 13 11.5C9.54451 11.5 6.38966 10.0533 4.07642 8.57841C2.92383 7.8435 1.99069 7.10828 1.34655 6.55748C1.09004 6.33815 0.879749 6.1484 0.720081 6C0.879749 5.8516 1.09004 5.66185 1.34655 5.44252C1.99069 4.89172 2.92383 4.1565 4.07642 3.42159C6.38966 1.94665 9.54451 0.5 13 0.5C16.4555 0.5 19.6103 1.94665 21.9236 3.42159C23.0762 4.1565 24.0093 4.89172 24.6535 5.44252C24.91 5.66185 25.1203 5.8516 25.2799 6Z" stroke="#A6A6A6"/>
</svg>
